<svg width="512" height="512" viewBox="0 0 512 512" xmlns="http://www.w3.org/2000/svg" xmlns:sketch="http://www.bohemiancoding.com/sketch/ns"><title>linkedin 2</title><desc>Created with Sketch.</desc><path d="M0 256c0 141.385 114.615 256 256 256s256-114.615 256-256-114.615-256-256-256-256 114.615-256 256zm192 160h-64v-224h64v224zm-32-256c-17.673 0-32-14.327-32-32 0-17.673 14.327-32 32-32 17.673 0 32 14.327 32 32 0 17.673-14.327 32-32 32zm256 256h-64v-128c0-17.673-14.327-32-32-32-17.673 0-32 14.327-32 32v128h-64v-224h64v39.736c13.199-18.132 33.376-39.736 56-39.736 39.765 0 72 35.817 72 80v144z" sketch:type="MSShapeGroup" fill="#000"/></svg>