<?xml version="1.0" encoding="UTF-8" standalone="no"?>
<svg width="516px" height="515px" viewBox="0 0 516 515" version="1.1" xmlns="http://www.w3.org/2000/svg" xmlns:xlink="http://www.w3.org/1999/xlink" xmlns:sketch="http://www.bohemiancoding.com/sketch/ns">
    <!-- Generator: Sketch 3.0.3 (7891) - http://www.bohemiancoding.com/sketch -->
    <title>Netscape_logo 2</title>
    <desc>Created with Sketch.</desc>
    <defs></defs>
    <g id="Page-1" stroke="none" stroke-width="1" fill="none" fill-rule="evenodd" sketch:type="MSPage">
        <g id="Netscape_logo" sketch:type="MSLayerGroup" transform="translate(3.000000, 3.000000)">
            <g id="layer1" transform="translate(-0.162801, -0.012996)" sketch:type="MSShapeGroup">
                <path d="M509.942012,254.902597 C509.942012,395.674239 395.824049,509.792202 255.052407,509.792202 C114.280765,509.792202 0.162801364,395.674239 0.162801364,254.902597 C0.162801364,114.130955 114.280765,0.0129914095 255.052407,0.0129914095 C395.824049,0.0129914095 509.942012,114.130955 509.942012,254.902597 L509.942012,254.902597 Z" id="path3344" stroke="#000000" stroke-width="4.5"></path>
                <path d="M501.14518,254.902609 C501.14518,390.815892 390.965696,500.995376 255.052413,500.995376 C119.139131,500.995376 8.9596462,390.815892 8.9596462,254.902609 C8.9596462,118.989327 119.139131,8.8098422 255.052413,8.8098422 C390.965696,8.8098422 501.14518,118.989327 501.14518,254.902609 L501.14518,254.902609 Z" id="path3342"></path>
                <path d="M483.551512,254.902615 C483.551512,381.099178 381.248984,483.401706 255.052421,483.401706 C128.855859,483.401706 26.5533312,381.099178 26.5533312,254.902615 C26.5533312,128.706053 128.855859,26.4035252 255.052421,26.4035252 C381.248984,26.4035252 483.551512,128.706053 483.551512,254.902615 L483.551512,254.902615 Z" id="path3337" stroke="#000000" stroke-width="3.5"></path>
                <path d="M483.551512,254.902615 C483.551512,381.099178 381.248984,483.401706 255.052421,483.401706 C128.855859,483.401706 26.5533312,381.099178 26.5533312,254.902615 C26.5533312,128.706053 128.855859,26.4035252 255.052421,26.4035252 C381.248984,26.4035252 483.551512,128.706053 483.551512,254.902615 L483.551512,254.902615 Z" id="path2541" stroke="#000000" stroke-width="0.5"></path>
                <path d="M93.825945,132.348501 L113.7538,135.005538 L121.06068,138.991118 L290.447435,329.634234 L342.924143,334.948355 L321.003504,303.063791 L162.909179,127.698674 L93.825945,127.034403 L93.825945,132.348501 L93.825945,132.348501 Z" id="path3327" stroke="#000000" stroke-width="0.5" fill="#FFFFFF"></path>
                <path d="M93.825945,132.348501 L113.7538,135.005538 L121.06068,138.991118 L290.447435,329.634234 L342.924143,334.948355 L321.003504,303.063791 L162.909179,127.698674 L93.825945,127.034403 L93.825945,132.348501 L93.825945,132.348501 Z" id="path3317" stroke="#000000" stroke-width="0.5" fill="#000000"></path>
                <path d="M459.372031,357.261899 C421.809037,432.044392 344.39183,483.401648 255.052404,483.401648 C167.590454,483.401648 91.5548937,434.180299 53.1534794,361.945292 C261.939488,298.627698 332.295042,337.280784 459.372031,357.261899 L459.372031,357.261899 Z" id="path3339" fill="#000000"></path>
                <rect id="rect3333" stroke="#000000" stroke-width="0.5" fill="#000000" transform="translate(334.504888, 239.102437) scale(1, -1) translate(-334.504888, -239.102437) " x="327.536036" y="135.731135" width="15.0654604" height="206.898971"></rect>
                <path d="M285.542548,131.859566 C312.53233,131.118638 323.011718,142.760523 328.730195,157.973062 L343.795645,154.95994 C348.78748,144.794731 352.562646,134.223935 380.957117,131.859566 L380.957117,124.82904 L284.538197,124.82904 L285.542548,131.859566 L285.542548,131.859566 Z" id="path3335" stroke="#000000" stroke-width="0.5" fill="#000000"></path>
                <path d="M46.4670844,348.233589 C185.411281,310.989977 333.855414,317.183544 459.543628,356.905326 L457.416014,361.112166 C367.344301,353.407566 214.648785,320.971045 59.6356894,373.211603 C55.1764651,366.167 50.3960813,357.915763 46.4670844,348.233589 L46.4670844,348.233589 Z" id="path2545" stroke="#000000" stroke-width="0.5" fill="#FFFFFF"></path>
                <path d="M92.1777604,370.8982 C118.799899,371.639128 129.136534,359.997243 134.777127,344.784704 L149.637377,347.797803 C154.561189,357.963058 158.284939,368.533831 186.292648,370.8982 L186.292648,377.928726 L91.1870777,377.928726 L92.1777604,370.8982 L92.1777604,370.8982 Z" id="path3352" stroke="#000000" stroke-width="0.5" fill="#FFFFFF"></path>
                <path d="M133.786449,152.411082 L148.646697,169.396845 L148.646697,366.880703 L133.786449,366.880703 L133.786449,152.411082 L133.786449,152.411082 Z" id="rect3350" stroke="#000000" stroke-width="0.5" fill="#000000"></path>
                <path d="M93.7090355,370.8982 C120.965251,372.704851 131.994507,363.262498 136.896685,344.784704 L151.962144,347.797803 C156.953954,357.963058 160.729125,368.533831 189.123609,370.8982 L189.123609,377.928726 L92.7046707,377.928726 L93.7090355,370.8982 L93.7090355,370.8982 Z" id="path3331" stroke="#000000" stroke-width="0.5" fill="#000000"></path>
                <path d="M135.892323,155.919318 L150.957782,172.734043 L150.957782,366.880749 L135.892323,366.880749 L135.892323,155.919318 L135.892323,155.919318 Z" id="rect3329" stroke="#000000" stroke-width="0.5" fill="#000000"></path>
            </g>
        </g>
    </g>
</svg>