<?xml version="1.0" encoding="UTF-8" standalone="no"?>
<svg width="512px" height="512px" viewBox="0 0 512 512" version="1.1" xmlns="http://www.w3.org/2000/svg" xmlns:xlink="http://www.w3.org/1999/xlink" xmlns:sketch="http://www.bohemiancoding.com/sketch/ns">
    <!-- Generator: Sketch 3.0.3 (7891) - http://www.bohemiancoding.com/sketch -->
    <title>Slice 1</title>
    <desc>Created with Sketch.</desc>
    <defs></defs>
    <g id="Page-1" stroke="none" stroke-width="1" fill="none" fill-rule="evenodd" sketch:type="MSPage">
        <g id="circle2" sketch:type="MSLayerGroup" fill="#000000">
            <path d="M0,256 C3.49705965e-14,397.384896 114.615104,512 256,512 C397.384896,512 512,397.384896 512,256 C512,114.615104 397.384896,-1.22341711e-14 256,-1.34585482e-14 C114.615104,-1.46829253e-14 -8.05350006e-15,114.615104 1.34585482e-14,256 L0,256 Z M299.841991,331.741275 C292.468888,335.853421 286.546285,333.102319 278.249896,328.726405 C270.69754,322.957795 248.329121,305.357863 224.720429,281.783582 C207.483131,259.967317 194.298799,239.390761 188.227258,229.496157 C187.815371,228.401519 187.605144,227.760563 187.605144,227.760563 C184.04842,218.874213 181.82489,212.646646 186.732603,205.65613 C191.249519,199.241947 192.993283,197.490527 198.753108,192.396504 L140.89784,106.590078 C133.909604,111.686079 123.092468,123.145488 114.201644,135.853839 C105.938866,147.932443 98.9427212,161.298895 97.0348616,170.83939 C107.114555,207.184667 131.47387,274.95924 176.501335,323.379824 L176.487496,323.582925 C219.804807,377.014445 288.629444,410.250554 325.143044,424.623282 C334.816782,423.709985 348.826864,418.131947 361.689595,411.168467 C375.264066,403.641183 387.764995,394.059804 393.539318,387.637049 L314.267255,321.148345 C308.60167,326.364361 306.689856,327.910042 299.841991,331.741275 Z M223.278495,171.839731 C228.050451,168.343484 226.779863,161.985352 224.547766,158.489764 L180.670948,91.2862487 C177.80817,87.7972551 171.842731,85.9686822 166.665479,87.607342 L148.586614,99.7281492 L206.602682,185.373017 L223.278495,171.839731 Z M412.640322,349.347801 L350.380831,298.712224 C347.131868,296.128615 340.948294,294.203107 336.986272,298.588253 L321.798523,313.787894 L400.911763,380.39925 L414.840786,363.678326 C417.005663,358.69047 415.807566,352.562476 412.640322,349.347801 Z" id="Shape" sketch:type="MSShapeGroup"></path>
        </g>
    </g>
</svg>